<?xml version="1.0" standalone="no"?>
<!DOCTYPE svg PUBLIC "-//W3C//DTD SVG 1.1//EN" "http://www.w3.org/Graphics/SVG/1.1/DTD/svg11.dtd" >
<svg xmlns="http://www.w3.org/2000/svg">
<metadata></metadata>
<defs>
<font id="ledgerregular" horiz-adv-x="1191" >
<font-face units-per-em="2048" ascent="1638" descent="-410" />
<missing-glyph horiz-adv-x="575" />
<glyph horiz-adv-x="0" />
<glyph horiz-adv-x="682" />
<glyph horiz-adv-x="0" />
<glyph horiz-adv-x="0" />
<glyph unicode="&#xd;" horiz-adv-x="575" />
<glyph unicode=" "  horiz-adv-x="575" />
<glyph unicode="&#x09;" horiz-adv-x="575" />
<glyph unicode="&#xa0;" horiz-adv-x="575" />
<glyph unicode="!" horiz-adv-x="698" d="M215 113q0 56 37 93.5t98 37.5q57 0 95 -36t38 -95q0 -60 -36.5 -98t-96.5 -38q-59 0 -97 39t-38 97zM233 1536h234l-76 -1161h-84z" />
<glyph unicode="&#x22;" horiz-adv-x="690" d="M45 1628h250l-76 -514h-96zM395 1628h250l-76 -514h-96z" />
<glyph unicode="#" horiz-adv-x="1325" d="M96 567v74h299l43 289h-282v80h290l76 526h144l-74 -526h227l80 526h133l-71 -526h264v-80h-277l-39 -289h260v-74h-270l-82 -567h-135l78 567h-232l-79 -567h-140l78 567h-291zM539 641h231l41 289h-231z" />
<glyph unicode="$" horiz-adv-x="1325" d="M117 1145q0 75 28.5 144.5t83.5 128t146.5 95.5t206.5 41v170h84v-172q113 -9 221.5 -46t183.5 -109v-299h-104l-95 311q-94 49 -206 59v-573l84 -39q415 -164 415 -455q0 -77 -30 -144t-80 -113.5t-115.5 -81t-134.5 -53t-139 -23.5v-160h-84v156q-181 9 -320 75 q-63 27 -135 72v338h119l88 -332q48 -31 115.5 -52t132.5 -22v625q-18 8 -50.5 23.5t-44.5 21.5q-370 151 -370 414zM319 1235q0 -55 21.5 -102t62.5 -84t81 -62.5t98 -54.5v536q-110 -8 -186.5 -70.5t-76.5 -162.5zM666 66q52 7 98 22t90.5 42.5t72 73.5t31.5 105 q-2 65 -25.5 118t-67.5 93.5t-89.5 69t-109.5 59.5v-583z" />
<glyph unicode="%" horiz-adv-x="1736" d="M63 1159q0 185 91 285t256 100q150 0 240.5 -101.5t90.5 -293.5q0 -194 -91.5 -292.5t-246.5 -98.5q-153 0 -246.5 103t-93.5 298zM223 1161q0 -175 41.5 -258.5t138.5 -83.5q183 0 183 328q0 171 -42.5 253.5t-142.5 82.5q-178 0 -178 -322zM301 -23l1061 1629l74 -52 l-1063 -1626zM995 391q0 186 89 285.5t255 99.5q149 0 241.5 -101.5t92.5 -291.5t-92.5 -291.5t-249.5 -101.5q-154 0 -245 102.5t-91 298.5zM1151 393q0 -176 42 -258t140 -82q180 0 180 328q0 169 -42 252.5t-142 83.5q-178 0 -178 -324z" />
<glyph unicode="&#x26;" horiz-adv-x="1646" d="M113 399q0 138 81 230.5t289 206.5q-114 121 -156 205t-42 184q0 153 116 247.5t301 94.5q169 0 277 -90.5t108 -237.5q0 -66 -19 -115.5t-65.5 -93t-112 -80.5t-171.5 -82l479 -485q57 114 78.5 203t21.5 215h93q0 -121 -29 -228.5t-107 -250.5l209 -203l162 -43v-76 h-317l-176 168q-107 -107 -219.5 -153t-254.5 -46q-153 0 -277 53.5t-196.5 152.5t-72.5 224zM330 438q0 -176 103.5 -286.5t260.5 -110.5q225 0 381 184l-540 553q-113 -54 -159 -135t-46 -205zM481 1284q0 -64 18.5 -115.5t65.5 -113.5q4 -9 30.5 -42.5t51.5 -62.5t25 -28 q143 66 199.5 145.5t56.5 200.5q0 102 -59.5 166.5t-161.5 64.5q-100 0 -163 -57.5t-63 -157.5z" />
<glyph unicode="'" horiz-adv-x="339" d="M45 1628h250l-76 -518h-96z" />
<glyph unicode="(" horiz-adv-x="761" d="M117 492q0 407 109.5 672t348.5 478h97q-174 -158 -256 -430t-82 -720q0 -864 338 -1156h-97q-245 221 -351.5 490.5t-106.5 665.5z" />
<glyph unicode=")" horiz-adv-x="761" d="M90 -664q175 162 256.5 435t81.5 721q0 445 -84 719t-254 431h96q243 -218 350 -487t107 -663q0 -408 -108 -676t-349 -480h-96z" />
<glyph unicode="*" horiz-adv-x="995" d="M90 1272l51 155l318 -151l-45 352h164l-46 -352l322 151l51 -155l-348 -68l242 -256l-133 -96l-170 311l-168 -311l-135 96l243 256z" />
<glyph unicode="+" horiz-adv-x="1251" d="M88 700v138h469v501h137v-501h469v-138h-469v-497h-137v497h-469z" />
<glyph unicode="," horiz-adv-x="528" d="M57 -287l115 516h260l-280 -516h-95z" />
<glyph unicode="-" horiz-adv-x="745" d="M113 467v139h518v-139h-518z" />
<glyph unicode="." horiz-adv-x="509" d="M117 113q0 55 37.5 93t99.5 38q57 0 95 -36t38 -95q0 -60 -36.5 -98t-96.5 -38q-59 0 -98 39t-39 97z" />
<glyph unicode="/" horiz-adv-x="833" d="M-180 -655l913 2297h109l-912 -2297h-110z" />
<glyph unicode="0" horiz-adv-x="1265" d="M82 782q0 364 153 566t408 202q113 0 209.5 -48.5t171.5 -143.5t117.5 -248.5t42.5 -349.5q0 -188 -43.5 -337.5t-119 -244t-174.5 -144.5t-214 -50q-116 0 -215 50t-174.5 146t-118.5 250.5t-43 351.5zM311 788q0 -353 76 -539t246 -186q155 0 240 175t85 520 q0 715 -327 715q-151 0 -235.5 -173.5t-84.5 -511.5z" />
<glyph unicode="1" horiz-adv-x="1081" d="M102 1184v98l437 256h129v-1415l209 -47v-76h-623v76l199 47v1270z" />
<glyph unicode="2" horiz-adv-x="1271" d="M123 76q0 81 41.5 164.5t108 157.5t147 150t161 153.5t147 155.5t108 168t41.5 179q0 54 -17 102t-50.5 88t-90.5 63.5t-131 23.5q-131 0 -223 -99l-101 -270h-104v270q73 86 194 132.5t254 46.5q205 0 337 -114t132 -271q0 -84 -41.5 -166.5t-107.5 -151.5t-146.5 -136 t-163 -132t-152 -128t-118 -136t-57.5 -144h817v-182h-977q-8 31 -8 76z" />
<glyph unicode="3" horiz-adv-x="1234" d="M123 143v281h104l99 -274q126 -111 270 -111q130 0 216.5 101t90.5 300q-12 214 -99 308t-245 94h-133l414 602h-531l-78 -332h-104v424h948v-74l-397 -557q213 -23 323.5 -144t110.5 -321q0 -113 -45.5 -204.5t-122 -148.5t-172.5 -87.5t-201 -30.5q-126 0 -242.5 44 t-205.5 130z" />
<glyph unicode="4" horiz-adv-x="1271" d="M51 401v146l758 1014h152v-1014h229v-146h-229v-276l221 -49v-76h-623v76l197 45v280h-705zM152 547h604v805z" />
<glyph unicode="5" d="M123 135v285h104l86 -279q97 -75 224 -75q137 0 229 116t92 289q0 180 -96.5 296t-224.5 116q-81 0 -153 -52t-124 -159h-127l98 864h721v-172h-649l-67 -608q33 74 80.5 127t101.5 80t104 39t101 12q182 0 314 -147t132 -361q0 -81 -17 -154.5t-56.5 -143t-99 -120 t-151 -81t-204.5 -30.5q-131 0 -244 42t-174 116z" />
<glyph unicode="6" horiz-adv-x="1271" d="M123 707q0 248 76.5 444t210 304t299.5 108q189 0 383 -146v-303h-105l-84 301q-128 64 -231 64q-324 0 -334 -723q62 135 163 195.5t220 60.5q86 0 159.5 -29t126 -79t89.5 -115.5t55 -139t18 -149.5q0 -98 -31 -189t-90.5 -165.5t-156 -119t-217.5 -44.5 q-111 0 -203 40t-155.5 108.5t-107.5 161.5t-64.5 197.5t-20.5 217.5zM340 465q0 -97 25 -174t67.5 -123.5t95.5 -71t111 -24.5q77 0 138.5 33.5t98.5 89.5t56.5 125t19.5 145q0 107 -35 201t-109 157.5t-173 63.5q-122 0 -208.5 -105.5t-86.5 -300.5v-16z" />
<glyph unicode="7" horiz-adv-x="1130" d="M61 1112v424h1008v-98q-258 -364 -406.5 -759.5t-156.5 -678.5h-252q66 305 259 694.5t429 677.5h-719l-55 -260h-107z" />
<glyph unicode="8" horiz-adv-x="1288" d="M123 391q0 137 94.5 250t276.5 160q-160 39 -243 137.5t-83 220.5q0 95 41 172.5t109 126.5t153 75t176 26q90 0 174.5 -26t153 -75t110 -127.5t41.5 -175.5q0 -122 -82.5 -219t-244.5 -135q179 -47 272.5 -160t93.5 -250q0 -101 -44 -182.5t-117.5 -132.5t-165 -78 t-191.5 -27q-80 0 -155.5 16.5t-142.5 51t-117 83.5t-79.5 118.5t-29.5 150.5zM352 399q0 -165 85.5 -258.5t201.5 -93.5q119 0 207 95.5t88 265.5q0 91 -29.5 169t-93.5 129.5t-152 51.5h-18q-91 0 -158.5 -53.5t-99 -133.5t-31.5 -172zM379 1159q0 -84 28 -155 t89.5 -118.5t146.5 -47.5q86 0 149.5 49t93 122.5t29.5 159.5q0 151 -79 234.5t-187 83.5q-112 0 -191 -86t-79 -242z" />
<glyph unicode="9" horiz-adv-x="1292" d="M123 1044q0 78 19 152.5t59.5 141t97.5 116.5t139.5 79.5t179.5 29.5q111 0 203 -40t155.5 -108.5t107.5 -161.5t64.5 -197.5t20.5 -217.5q0 -249 -77.5 -444t-217 -303.5t-317.5 -108.5q-190 0 -383 145v303h105l83 -301q126 -63 232 -63q78 0 137 32t100 91t67.5 149.5 t39.5 200t16 249.5q-124 -256 -383 -256q-86 0 -159.5 29t-126 79t-89.5 115.5t-55 139t-18 149.5zM340 1079q0 -107 35 -201t109 -157.5t173 -63.5q122 0 208.5 105.5t86.5 300.5v16q0 97 -25 174t-67.5 124t-95.5 71.5t-111 24.5q-77 0 -138.5 -33.5t-98.5 -90 t-56.5 -125.5t-19.5 -145z" />
<glyph unicode=":" horiz-adv-x="509" d="M117 113q0 55 37.5 93t99.5 38q57 0 95 -36t38 -95q0 -60 -36.5 -98t-96.5 -38q-59 0 -98 39t-39 97zM117 872q0 53 37.5 94.5t99.5 41.5q55 0 94 -38.5t39 -97.5q0 -60 -36.5 -97.5t-96.5 -37.5t-98.5 38.5t-38.5 96.5z" />
<glyph unicode=";" horiz-adv-x="528" d="M57 -287l115 516h260l-280 -516h-95zM147 872q0 54 37 95t99 41q55 0 95 -38.5t40 -97.5q0 -60 -37.5 -97.5t-97.5 -37.5q-59 0 -97.5 38.5t-38.5 96.5z" />
<glyph unicode="&#x3c;" horiz-adv-x="1150" d="M76 713v94l997 446v-147l-797 -348l797 -348v-146z" />
<glyph unicode="=" horiz-adv-x="1251" d="M90 539v139h1073v-139h-1073zM90 864v137h1073v-137h-1073z" />
<glyph unicode="&#x3e;" horiz-adv-x="1150" d="M78 264v146l796 348l-796 348v147l997 -446v-94z" />
<glyph unicode="?" horiz-adv-x="1128" d="M117 1112v270q60 86 173.5 132.5t246.5 46.5q91 0 174 -22t150.5 -63.5t108 -110t40.5 -153.5q0 -98 -57.5 -192.5t-170.5 -165.5l-63 -41q-120 -78 -160.5 -165t-40.5 -234v-41h-92v80q0 133 37 213.5t149 201.5l70 74q50 55 78 129.5t28 149.5q0 123 -78.5 194.5 t-183.5 71.5q-132 0 -204 -101l-101 -274h-104zM342 113q0 56 37 93.5t98 37.5q57 0 95 -36t38 -95q0 -60 -36.5 -98t-96.5 -38q-59 0 -97 39t-38 97z" />
<glyph unicode="@" horiz-adv-x="1898" d="M127 688q0 183 67 346t185 281t288 187t367 69q326 0 529.5 -181t203.5 -472q0 -162 -67 -294t-177.5 -205t-238.5 -73q-96 0 -156.5 47.5t-70.5 136.5q-57 -98 -123 -138t-146 -40q-106 0 -173.5 81t-67.5 220q0 132 51.5 256t149 205.5t215.5 81.5q108 0 180 -100 l16 80h158l-88 -463q-25 -128 -25 -166q0 -57 30 -93t87 -36q74 0 134.5 51t96.5 132t55 174t19 186q0 164 -76.5 286.5t-210 186t-305.5 63.5q-168 0 -311 -63.5t-242 -174.5t-155 -265t-56 -330q0 -144 45 -261.5t125 -195.5t189.5 -120t238.5 -42q105 0 246 33v-78 q-152 -31 -264 -31q-201 0 -364.5 86.5t-261 252t-97.5 380.5zM698 612q0 -83 36 -133.5t89 -50.5q76 0 144.5 75t109.5 197t41 256q0 77 -35 122.5t-102 45.5q-62 0 -117 -53t-90 -132t-55.5 -166.5t-20.5 -160.5z" />
<glyph unicode="A" horiz-adv-x="1873" d="M102 0v76l183 45l620 1431h105l589 -1431l173 -45v-76h-582v76l178 43l-162 397h-618l-154 -397l184 -43v-76h-516zM616 594h562l-287 719z" />
<glyph unicode="B" horiz-adv-x="1486" d="M184 0v76l197 45v1292l-197 47v76h609q286 0 428.5 -92t142.5 -283q0 -153 -96 -242.5t-307 -119.5q444 -40 444 -391q0 -165 -113 -275q-82 -82 -196 -107.5t-338 -25.5h-574zM594 82h162q218 0 316.5 77.5t98.5 254.5q0 173 -94.5 253.5t-302.5 80.5h-180v-666z M594 834h164q194 0 285.5 85t91.5 238q0 75 -22.5 129t-58.5 86t-93.5 51t-116 25t-137.5 6h-113v-620z" />
<glyph unicode="C" horiz-adv-x="1552" d="M123 758q0 244 103 427t277.5 277t393.5 94q145 0 274 -42.5t218 -127.5v-331h-107l-100 325q-112 101 -297 101q-113 0 -207.5 -45.5t-166 -133.5t-111.5 -225.5t-40 -312.5q0 -336 141 -530.5t376 -194.5q190 0 313 115l102 340h97v-347q-181 -190 -502 -190 q-162 0 -301.5 56t-242.5 157.5t-161.5 253t-58.5 334.5z" />
<glyph unicode="D" horiz-adv-x="1753" d="M184 0v76l203 47v1288l-203 49v76h545q165 0 297.5 -23t247.5 -78.5t192 -143t120.5 -221.5t43.5 -310t-44.5 -308.5t-123 -218t-198 -138t-257.5 -74t-315 -21.5h-508zM602 86h100q176 0 300 33.5t214 111t133.5 210t43.5 325.5q0 362 -158.5 523t-497.5 161h-135v-1364 z" />
<glyph unicode="E" horiz-adv-x="1433" d="M184 0v76l203 47v1288l-203 49v76h1129v-367h-107l-80 279h-524v-612h395l56 178h75v-424h-75l-56 155h-395v-657h561l80 277h109v-365h-1168z" />
<glyph unicode="F" horiz-adv-x="1396" d="M184 0v76l205 47v1288l-203 49v76h1129v-367h-107l-80 279h-524v-635h393l58 174h75v-422h-75l-58 156h-393v-600l203 -45v-76h-623z" />
<glyph unicode="G" horiz-adv-x="1642" d="M123 762q0 240 82 420t248.5 283.5t398.5 103.5q86 0 173.5 -12t194.5 -52t175 -104v-346h-107l-100 340q-36 39 -114 62.5t-133 28.5t-103 5q-240 0 -359 -186.5t-119 -526.5q0 -355 125.5 -539t380.5 -184q160 0 359 49v437l-215 47v76h632v-76l-202 -47v-467 q-104 -47 -268.5 -74t-301.5 -27q-358 0 -552.5 211t-194.5 578z" />
<glyph unicode="H" horiz-adv-x="1959" d="M184 0v76l205 45v1290l-205 49v76h625v-76l-205 -49v-582h750v582l-201 49v76h623v-76l-207 -47v-1290l207 -47v-76h-623v76l201 45v616h-750v-616l205 -45v-76h-625z" />
<glyph unicode="I" horiz-adv-x="991" d="M184 0v76l203 47v1288l-203 49v76h623v-76l-205 -47v-1292l205 -45v-76h-623z" />
<glyph unicode="J" horiz-adv-x="972" d="M143 -457q42 54 72.5 99t54.5 92.5t39.5 82.5t26.5 87t16.5 88t8.5 102.5t3.5 113t0.5 136.5v1069l-199 47v76h622v-76l-206 -47v-844q0 -129 -0.5 -188t-5.5 -155.5t-14.5 -142.5t-27.5 -119t-45 -118t-67.5 -106t-94.5 -115t-126 -117z" />
<glyph unicode="K" horiz-adv-x="1765" d="M184 0v76l203 47v1288l-203 49v76h623v-76l-205 -47v-598l561 606l-159 39v76h520v-76l-183 -45l-557 -524l637 -770l242 -45v-76h-430l-631 774v-653l205 -45v-76h-623z" />
<glyph unicode="L" horiz-adv-x="1437" d="M184 0v76l205 47v1288l-205 49v76h623v-76l-203 -47v-1323h524l80 297h107v-387h-1131z" />
<glyph unicode="M" horiz-adv-x="2336" d="M184 0v76l197 47v1284l-174 53v76h440l518 -1282l504 1282h483v-76l-213 -49v-1288l209 -47v-76h-622v76l200 47v1286l-557 -1409h-125l-557 1409v-1286l205 -47v-76h-508z" />
<glyph unicode="N" horiz-adv-x="1964" d="M184 0v76l191 45v1286l-191 53v76h457l836 -1212v1083l-201 53v76h504v-76l-201 -51v-1409h-143l-959 1405v-1284l201 -45v-76h-494z" />
<glyph unicode="O" horiz-adv-x="1703" d="M123 764q0 186 55 339t152.5 255.5t231.5 158.5t290 56q214 0 379.5 -100.5t257.5 -284.5t92 -424q0 -363 -201 -583t-530 -220t-528 218t-199 585zM360 764q0 -346 121.5 -533.5t364.5 -187.5q238 0 370 184.5t132 544.5q0 354 -128 536.5t-366 182.5 q-243 0 -368.5 -186.5t-125.5 -540.5z" />
<glyph unicode="P" horiz-adv-x="1470" d="M184 0v76l199 47v1290l-199 47v76h617q220 0 355 -48t194 -140.5t59 -239.5q0 -78 -16.5 -141.5t-45.5 -109t-74 -80t-96 -56t-116.5 -34.5t-131.5 -18t-145 -5h-186v-541l209 -47v-76h-623zM598 745h229q174 0 259 86t85 269t-85 268.5t-259 85.5h-229v-709z" />
<glyph unicode="Q" horiz-adv-x="1677" d="M123 766q0 183 54.5 335.5t151 255.5t230.5 159.5t291 56.5q156 0 289.5 -55.5t231 -158t153 -255.5t55.5 -340q0 -295 -134.5 -498t-363.5 -270l-71 -21q59 -95 107 -155t96.5 -103t109 -67t126.5 -36.5t167 -21.5v-67h-78q-154 0 -273.5 29t-208 88.5t-151.5 135 t-121 183.5q-301 29 -481 246.5t-180 558.5zM358 768q0 -341 123 -530t369 -189q236 0 366 180t130 537q0 358 -130 539.5t-366 181.5q-241 0 -366.5 -183.5t-125.5 -535.5z" />
<glyph unicode="R" horiz-adv-x="1734" d="M184 0v76l199 47v1290l-199 47v76h617q220 0 354.5 -45t194 -134.5t59.5 -232.5q0 -113 -35.5 -197t-99.5 -134t-145.5 -74.5t-180.5 -24.5l461 -573l223 -45v-76h-413l-506 684h-115v-561l209 -47v-76h-623zM598 764h229q175 0 259.5 82t84.5 264q0 181 -84.5 262.5 t-259.5 81.5h-229v-690z" />
<glyph unicode="S" horiz-adv-x="1236" d="M143 1145q0 77 30 148.5t88 130.5t154.5 94.5t217.5 35.5q122 0 250 -37t215 -120v-299h-105l-94 311q-113 61 -252 61q-125 0 -213 -62.5t-88 -172.5q0 -46 14.5 -86t43 -72t59.5 -57.5t76 -50t79.5 -41t83 -38t74.5 -34.5q87 -37 154 -76.5t130 -94.5t97.5 -127 t34.5 -157t-36 -156.5t-93.5 -119t-132.5 -80.5t-151 -48t-150 -15q-169 0 -334 73q-82 37 -141 74v338h118l88 -332q52 -33 123.5 -53.5t139.5 -20.5q40 0 83.5 6.5t93 24.5t89 44.5t66.5 71.5t30 101q-1 60 -25.5 112.5t-56.5 87.5t-88 71.5t-96.5 56t-107.5 49.5t-97 45 q-77 31 -137.5 67t-116.5 86t-86.5 116.5t-30.5 144.5z" />
<glyph unicode="T" horiz-adv-x="1466" d="M61 1149v387h1344v-387h-107l-79 299h-381v-1327l209 -45v-76h-623v76l199 47v1325h-375l-80 -299h-107z" />
<glyph unicode="U" horiz-adv-x="1822" d="M123 1460v76h622v-76l-202 -47v-835q0 -266 104.5 -390.5t310.5 -124.5q437 0 437 537v811l-205 51v74h510v-74l-193 -51v-821q0 -621 -594 -621q-304 0 -444.5 162.5t-140.5 484.5v795z" />
<glyph unicode="V" horiz-adv-x="1787" d="M82 1460v76h623v-76l-197 -45l457 -1175l415 1171l-176 51v74h502v-74l-172 -53l-580 -1425h-120l-566 1431z" />
<glyph unicode="W" horiz-adv-x="2635" d="M82 1460v76h623v-76l-207 -45l376 -1126l429 1247h127l450 -1266l352 1143l-180 49v74h502v-74l-178 -53l-494 -1409h-123l-446 1268l-439 -1268h-122l-482 1413z" />
<glyph unicode="X" horiz-adv-x="1699" d="M102 1460v76h623v-76l-160 -43l318 -506l340 498l-181 53v74h502v-74l-180 -55l-414 -573l451 -709l196 -49v-76h-622v76l168 43l-334 534l-367 -540l164 -39v-74h-502v74l185 47l446 612l-432 676z" />
<glyph unicode="Y" horiz-adv-x="1636" d="M61 1460v76h623v-76l-180 -43l389 -667l358 661l-178 51v74h502v-74l-182 -55l-455 -750v-534l211 -47v-76h-623v76l197 45v508l-465 780z" />
<glyph unicode="Z" horiz-adv-x="1484" d="M123 0v76l932 1364h-713l-76 -291h-106v387h1163v-74l-938 -1362h793l77 287h107v-387h-1239z" />
<glyph unicode="[" horiz-adv-x="770" d="M221 -643v2271h451v-76h-248v-2121h248v-74h-451z" />
<glyph unicode="\" horiz-adv-x="833" d="M-10 1642h110l912 -2297h-109z" />
<glyph unicode="]" horiz-adv-x="770" d="M98 -569h250v2121h-250v76h453v-2271h-453v74z" />
<glyph unicode="^" horiz-adv-x="1150" d="M88 883l424 653h129l426 -653h-147l-347 544l-344 -544h-141z" />
<glyph unicode="_" horiz-adv-x="1150" d="M0 -254h1151v-137h-1151v137z" />
<glyph unicode="`" horiz-adv-x="790" d="M195 1536h274l270 -297h-63z" />
<glyph unicode="a" d="M82 250q0 181 158 259.5t505 84.5v88q0 145 -59 197.5t-182 52.5q-50 0 -105 -15t-92 -38l-67 -203h-76v231q50 44 141.5 73.5t196.5 29.5q106 0 183 -18t135.5 -59.5t88 -116.5t29.5 -183v-510l172 -47v-76h-360v207q-94 -225 -338 -225q-163 0 -246.5 70.5t-83.5 197.5 zM279 270q0 -108 44 -155t142 -47q50 0 90 12.5t76.5 44.5t61 82.5t38.5 130t14 184.5q-142 0 -233.5 -14.5t-142.5 -47.5t-70.5 -77.5t-19.5 -112.5z" />
<glyph unicode="b" horiz-adv-x="1337" d="M82 0v76l170 47v1309l-170 30v74h364v-774q43 125 133.5 188.5t206.5 63.5q192 0 310 -136.5t118 -383.5q0 -244 -118 -379t-312 -135q-126 0 -217.5 68t-132.5 194v-242h-352zM446 494q0 -186 84.5 -304t227.5 -118q250 0 250 415q0 435 -250 435q-134 0 -223 -115.5 t-89 -312.5z" />
<glyph unicode="c" horiz-adv-x="1054" d="M102 489q0 163 69.5 283.5t186.5 181t265 60.5q93 0 181.5 -24t133.5 -64v-254h-76l-67 223q-28 21 -80 32t-101 11q-143 0 -222 -114.5t-79 -334.5q0 -221 82.5 -326.5t233.5 -105.5q103 0 166 29l71 233h76v-241q-52 -47 -143 -72.5t-189 -25.5q-145 0 -259 58 t-181.5 174.5t-67.5 276.5z" />
<glyph unicode="d" horiz-adv-x="1277" d="M123 492q0 245 117.5 381.5t308.5 136.5q136 0 228 -66t116 -172v660l-154 30v74h344v-1417l174 -43v-76h-356v233q-37 -129 -128.5 -191t-221.5 -62q-192 0 -310 133.5t-118 378.5zM330 498q0 -426 256 -426q138 0 226.5 115t88.5 307t-89 308t-228 116 q-254 0 -254 -420z" />
<glyph unicode="e" horiz-adv-x="1128" d="M104 487q0 248 132.5 386.5t355.5 138.5q78 0 142 -18.5t106 -47t73.5 -70.5t48 -82.5t27 -89t13 -84t2.5 -73.5h-695q0 -94 6.5 -163t25.5 -133.5t51 -105t85.5 -64.5t126.5 -24q63 0 121 17t85.5 33.5t27.5 21.5l75 217h76v-233q-55 -62 -155.5 -97.5t-229.5 -35.5 q-250 0 -375 135.5t-125 371.5zM313 614h512q0 164 -63 241t-174 77q-91 0 -150.5 -45.5t-87.5 -114.5q-31 -73 -37 -158z" />
<glyph unicode="f" horiz-adv-x="768" d="M82 911v84h186q0 282 65.5 406.5t225.5 124.5q84 0 209 -35v-262h-86l-47 176q-42 22 -76 22q-70 0 -106.5 -69t-36.5 -174q0 -118 43 -189h246v-84h-242v-790l155 -45v-76h-491v76l141 45v790h-186z" />
<glyph unicode="g" horiz-adv-x="1095" d="M51 -354q0 156 187 258q-82 70 -82 159q0 82 38.5 127.5t141.5 92.5q-213 110 -213 346q0 176 112.5 281.5t303.5 105.5q88 0 196 -27h348v-71l-184 -72q62 -90 62 -219q0 -175 -121.5 -277t-307.5 -102q-59 0 -137 16q-59 -33 -79.5 -60t-20.5 -61q0 -41 12.5 -61.5 t56 -35.5t132.5 -23l202 -17q188 -4 270.5 -73t82.5 -209q0 -189 -147.5 -293.5t-387.5 -104.5q-216 0 -340.5 84t-124.5 236zM184 -328q0 -122 93 -198t266 -76q171 0 282 75t111 195q0 145 -197 160l-290 22q-105 8 -166 33q-99 -99 -99 -211zM311 629q0 -157 56 -231 t172 -74q117 0 174 73t57 226q0 165 -55 238t-178 73q-226 0 -226 -305z" />
<glyph unicode="h" horiz-adv-x="1290" d="M82 0v76l149 45v1317l-137 24v74h332v-793q34 133 125 200t225 67q159 0 246.5 -91t87.5 -270v-530l150 -43v-76h-486v76l141 43v526q0 144 -45 205t-139 61q-145 0 -225 -132.5t-80 -405.5v-256l141 -41v-76h-485z" />
<glyph unicode="i" horiz-adv-x="659" d="M92 0v76l150 45v774l-140 25v73h332v-876l144 -41v-76h-486zM170 1430q0 56 36 87t97 31t97 -31.5t36 -86.5q0 -53 -34.5 -86t-98.5 -33q-61 0 -97 31.5t-36 87.5z" />
<glyph unicode="j" horiz-adv-x="493" d="M20 -614l13 14q37 44 62 81t42 81t26 76.5t13 92.5t5 104t1 134v926l-137 25v73h332v-915q0 -104 -3.5 -173.5t-19 -135t-31 -106t-56 -99t-77.5 -101t-110 -122.5zM131 1430q0 56 36 87t97 31t97 -31.5t36 -86.5q0 -53 -34.5 -86t-98.5 -33q-61 0 -97 31.5t-36 87.5z " />
<glyph unicode="k" horiz-adv-x="1323" d="M123 0v76l170 47v1311l-170 28v74h364v-965l334 308l-147 36v76h471v-76l-180 -43l-310 -249l447 -498l201 -49v-76h-347l-469 535v-410l156 -49v-76h-520z" />
<glyph unicode="l" horiz-adv-x="704" d="M123 0v76l160 43v1319l-148 24v74h342v-1415l166 -45v-76h-520z" />
<glyph unicode="m" horiz-adv-x="2068" d="M113 0v76l161 43v774l-155 27v73h332v-266q93 283 370 283q126 0 202 -60t107 -198q92 258 349 258q151 0 235 -87.5t84 -254.5v-551l172 -41v-76h-512v76l148 45v495q0 87 -12 145.5t-37 90.5t-56.5 44.5t-75.5 12.5q-290 0 -290 -536v-254l174 -43v-76h-521v76l152 43 v465q0 177 -38.5 252t-139.5 75q-83 0 -143 -45.5t-91.5 -124t-45 -163.5t-13.5 -183v-274l160 -45v-76h-516z" />
<glyph unicode="n" horiz-adv-x="1409" d="M137 0v76l152 43v774l-152 29v73h332v-288q82 303 365 303q165 0 245 -102t80 -279v-508l158 -45v-76h-486v76l138 41v487q0 165 -44 237t-139 72q-145 0 -224 -138.5t-79 -414.5v-243l144 -41v-76h-490z" />
<glyph unicode="o" d="M96 489q0 242 137 382.5t365 140.5q226 0 361 -137t135 -383q0 -245 -135.5 -377.5t-362.5 -132.5q-230 0 -365 133t-135 374zM303 489q0 -225 72 -324t219 -99q151 0 223 101t72 329q0 215 -68 322.5t-223 107.5q-150 0 -222.5 -104t-72.5 -333z" />
<glyph unicode="p" horiz-adv-x="1286" d="M61 -569l154 45v1419l-149 27v71h331v-252q49 142 136.5 205.5t214.5 63.5q194 0 312 -135.5t118 -380.5t-118 -381t-310 -136q-248 0 -340 244v-745l149 -45v-76h-498v76zM412 500q0 -189 84 -310.5t223 -121.5q250 0 250 426q0 218 -62.5 322t-187.5 104 q-133 0 -220 -113t-87 -307z" />
<glyph unicode="q" horiz-adv-x="1230" d="M96 489q0 123 34 222.5t93 164.5t137 99.5t168 34.5q133 0 233.5 -69.5t119.5 -195.5l176 263v-1532l153 -45v-76h-501v76l157 45v745q-92 -244 -342 -244q-193 0 -310.5 135.5t-117.5 376.5zM301 496q0 -424 254 -424q138 0 224.5 114.5t86.5 307.5q0 197 -81 310.5 t-222 113.5q-262 0 -262 -422z" />
<glyph unicode="r" horiz-adv-x="1001" d="M123 920v73h340v-291q41 123 127 206t209 83q75 0 182 -55v-246h-80l-63 168q-41 21 -88 21q-43 0 -91.5 -28.5t-88.5 -74t-66.5 -107t-26.5 -122.5v-428l152 -43v-76h-502v76l156 43v772z" />
<glyph unicode="s" horiz-adv-x="962" d="M115 725q0 137 100.5 217t282.5 80q205 0 325 -92v-236h-80l-63 197q-67 53 -191 53q-103 0 -158 -42t-55 -118q0 -40 22 -68.5t96 -64t218 -80.5q137 -41 201 -107.5t64 -170.5q0 -137 -103 -220t-295 -83q-231 0 -350 112v238h80l59 -201q71 -71 230 -71 q112 0 168.5 48.5t56.5 125.5q0 44 -25 73t-88.5 58t-195.5 71q-161 51 -230 113t-69 168z" />
<glyph unicode="t" horiz-adv-x="727" d="M41 907v86h176v211l191 109v-320h299v-86h-299v-635q0 -121 28 -167t96 -46q60 0 168 31v-76q-142 -39 -233 -39q-250 0 -250 301v631h-176z" />
<glyph unicode="u" horiz-adv-x="1300" d="M86 918v75h340v-612q0 -162 42.5 -229.5t137.5 -67.5q144 0 225.5 135.5t81.5 413.5v258l-149 27v75h340v-870l162 -47v-76h-340v276q-52 -145 -148 -222t-209 -77q-336 0 -336 369v545z" />
<glyph unicode="v" horiz-adv-x="1286" d="M61 918v75h521v-75l-142 -35l262 -678l240 678l-147 35v75h430v-75l-152 -35l-368 -883h-121l-363 883z" />
<glyph unicode="w" horiz-adv-x="1933" d="M61 918v75h521v-75l-142 -29l238 -678l276 786h133l289 -794l217 688l-149 27v77h428v-77l-162 -29l-328 -889h-125l-284 780l-279 -780h-133l-325 887z" />
<glyph unicode="x" horiz-adv-x="1249" d="M61 918v75h521v-75l-125 -25l200 -291l236 293l-145 23v75h417v-75l-147 -27l-307 -350l319 -430l158 -33v-78h-520v78l131 33l-211 305l-238 -310l144 -28v-78h-431v78l158 33l307 366l-305 414z" />
<glyph unicode="y" horiz-adv-x="1243" d="M20 918v75h521v-75l-140 -29l281 -664l248 666l-158 27v77h430v-77l-162 -25l-426 -1049q-28 -65 -44 -100t-37.5 -77.5t-38 -63t-39 -43t-47.5 -31.5t-56 -15t-71 -6h-91v299h76l51 -184q26 2 48.5 11t39.5 20t35 35t29 41.5t28 55t26 60.5t28.5 72.5t30.5 77.5 l-392 885z" />
<glyph unicode="z" horiz-adv-x="925" d="M41 0v55l586 852h-426l-49 -176h-76v262h790v-59l-585 -846h499l51 176h74v-264h-864z" />
<glyph unicode="{" horiz-adv-x="763" d="M61 459v69q230 9 230 224v505q2 95 13.5 160t33.5 109t59.5 68t84.5 34t116 10h145v-73q-144 -8 -197.5 -57.5t-53.5 -178.5v-569q-4 -121 -59.5 -182t-147.5 -84q49 -16 82.5 -34t62.5 -48.5t44.5 -76.5t17.5 -110v-569q0 -128 57 -178.5t194 -55.5v-77h-145 q-115 0 -176.5 30t-93.5 112t-37 239v510q0 214 -230 223z" />
<glyph unicode="|" horiz-adv-x="1165" d="M512 -385v1921h141v-1921h-141z" />
<glyph unicode="}" horiz-adv-x="763" d="M20 -578q141 4 192.5 53t59.5 181v569q0 117 54 179.5t153 89.5q-103 24 -155 86t-52 180v569q0 125 -56.5 177.5t-195.5 58.5v73h146q82 0 133.5 -13.5t92.5 -53.5t59 -116.5t18 -197.5v-505q0 -218 233 -224v-69q-233 -15 -233 -223v-510q-2 -118 -18.5 -191.5 t-54.5 -116t-91 -58t-139 -15.5h-146v77z" />
<glyph unicode="~" horiz-adv-x="1150" d="M178 670q88 130 148 182.5t139 52.5q35 0 150 -72.5t139 -72.5q37 0 72.5 28.5t91.5 98.5l57 -25l-39 -49q-70 -100 -122.5 -141t-119.5 -41q-35 0 -154 73.5t-141 73.5q-37 0 -58 -16.5t-71 -75.5l-37 -41z" />
<glyph unicode="&#xa1;" horiz-adv-x="702" d="M215 1423q0 58 38 97t97 39q60 0 96.5 -38t36.5 -98q0 -59 -38 -95t-95 -36q-61 0 -98 37.5t-37 93.5zM233 0l74 1161h84l76 -1161h-234z" />
<glyph unicode="&#xa2;" horiz-adv-x="1034" d="M96 489q0 227 128.5 364.5t334.5 158.5v231h86v-229q92 -5 170 -27t117 -61v-254h-76l-68 223q-42 29 -143 41v-879q87 4 143 29l72 233h76v-241q-91 -85 -291 -96v-246h-86v246q-100 6 -184 42.5t-146.5 100t-97.5 157t-35 207.5zM307 489q0 -385 252 -428v873 q-120 -19 -186 -132t-66 -313z" />
<glyph unicode="&#xa3;" horiz-adv-x="1310" d="M68 745v76h208v103q0 110 13 198.5t46 170.5t86.5 137t139 87.5t197.5 32.5q110 0 202 -43t152 -123v-270h-90l-86 275q-69 90 -188 90q-101 0 -176.5 -89t-75.5 -231v-338h319v-76h-319q-2 -124 -10.5 -210.5t-20 -142t-37.5 -100.5t-49 -70.5t-68 -67.5h856v-154h-1089 v61q73 0 115 38.5t62.5 133t20.5 261.5v251h-208z" />
<glyph unicode="&#xa4;" horiz-adv-x="1476" d="M123 1327l86 88l194 -192q152 120 336 120q179 0 332 -120l186 184l89 -86l-185 -184q117 -159 117 -332q0 -179 -117 -332l193 -192l-86 -91l-195 195q-151 -121 -332 -121q-175 0 -335 121l-185 -186l-88 90l182 184q-116 149 -116 332q0 174 116 332zM336 805 q0 -169 119.5 -286.5t281.5 -117.5q108 0 200.5 52.5t148 146t55.5 205.5q0 170 -121 287.5t-287 117.5q-103 0 -194 -53t-147 -147t-56 -205z" />
<glyph unicode="&#xa5;" horiz-adv-x="1423" d="M61 1460v76h623v-76l-180 -43l389 -667l358 661l-178 51v74h502v-74l-182 -55l-402 -659h381v-91h-434v-112h434v-90h-434v-332l211 -47v-76h-623v76l197 45v334h-428v90h428v84l-18 28h-410v91h356l-393 661z" />
<glyph unicode="&#xa6;" horiz-adv-x="1150" d="M504 352h141v-737h-141v737zM504 774v762h141v-762h-141z" />
<glyph unicode="&#xa7;" horiz-adv-x="1198" d="M127 510q0 82 61.5 162.5t180.5 171.5q-124 87 -178 168t-54 164q0 143 127 250.5t311 107.5q88 0 174 -36t144 -89v-319h-96l-82 311q-51 51 -144 51q-110 0 -173.5 -51.5t-63.5 -138.5q0 -46 20.5 -88.5t73 -92.5t87 -77.5t116.5 -87.5q13 -10 20 -15 q170 -123 234 -184q150 -142 151 -271q0 -146 -250 -342q113 -90 160 -168.5t47 -160.5v-8q-5 -143 -120 -244t-310 -101q-90 0 -183.5 36.5t-150.5 88.5v320h97l82 -311q53 -50 161 -50q111 0 180.5 51t69.5 136q0 39 -20 80.5t-47 75t-76 76t-85.5 70.5t-96.5 71 q-44 32 -60.5 44.5t-57.5 43t-58 46t-50 45.5t-48 49.5t-37 49t-31.5 54t-17 54t-7.5 58.5zM285 602q0 -51 28.5 -95.5t119.5 -124t288 -230.5q147 127 147 206q0 48 -29 91.5t-119.5 121t-289.5 226.5q-145 -125 -145 -195z" />
<glyph unicode="&#xa8;" horiz-adv-x="1150" d="M211 1430q0 56 36 87t97 31t97 -31.5t36 -86.5q0 -53 -34.5 -86t-98.5 -33q-61 0 -97 31.5t-36 87.5zM668 1430q0 56 36 87t97 31t97 -31.5t36 -86.5q0 -53 -34.5 -86t-98.5 -33q-61 0 -97 31.5t-36 87.5z" />
<glyph unicode="&#xa9;" horiz-adv-x="1837" d="M117 768q0 158 60 302.5t164.5 253t255 173t321.5 64.5q156 0 300.5 -63t250 -169.5t168.5 -253.5t63 -307t-63.5 -306.5t-170.5 -252.5t-253.5 -169t-305.5 -63q-158 0 -304 63.5t-252.5 170t-170 253t-63.5 304.5zM223 768q0 -187 92 -349t250 -257.5t342 -95.5 q139 0 266 56.5t219.5 150.5t147.5 224t55 271q0 197 -96 360t-254.5 254t-341.5 91q-136 0 -261.5 -56.5t-217 -151.5t-146.5 -225.5t-55 -271.5zM465 768q0 147 62 255t166.5 162t236.5 54q83 0 165 -22.5t122 -59.5v-221h-66l-61 197q-28 18 -78 30.5t-90 12.5 q-130 0 -201.5 -103.5t-71.5 -304.5q0 -393 287 -393q97 0 151 28l68 207h66v-209q-48 -43 -131.5 -66.5t-169.5 -23.5q-199 0 -327 120.5t-128 336.5z" />
<glyph unicode="&#xab;" horiz-adv-x="1030" d="M113 516l319 389h90l-194 -389l196 -389h-92zM504 516l319 389h92l-196 -389l196 -389h-92z" />
<glyph unicode="&#xac;" horiz-adv-x="1150" d="M76 485v138h997v-623h-137v485h-860z" />
<glyph unicode="&#xad;" horiz-adv-x="745" d="M113 467v139h518v-139h-518z" />
<glyph unicode="&#xae;" horiz-adv-x="1837" d="M117 768q0 158 60 302.5t164.5 253t255 173t321.5 64.5q208 0 387.5 -106.5t286 -289.5t106.5 -397q0 -213 -107.5 -395.5t-289.5 -289t-394 -106.5q-158 0 -304 63.5t-252.5 170t-170 253t-63.5 304.5zM221 768q0 -140 54.5 -270t146.5 -224.5t219 -151t266 -56.5 t266 56.5t219.5 150.5t147.5 224t55 271q0 148 -56.5 280t-151 224.5t-221.5 146.5t-265 54q-136 0 -261.5 -56.5t-217 -151.5t-146.5 -225.5t-55 -271.5zM496 375v59l125 33v631l-125 35v63h542q94 0 154.5 -67.5t60.5 -153.5q0 -87 -60 -153t-155 -66h-77l239 -283 l168 -37v-61h-266q-160 210 -234 303l-61 78h-29v-283l133 -39v-59h-415zM778 811h162q67 0 112.5 50t45.5 114q0 65 -45.5 113.5t-112.5 48.5h-162v-326z" />
<glyph unicode="&#xaf;" horiz-adv-x="1150" d="M279 1384v152h591v-152h-591z" />
<glyph unicode="&#xb0;" horiz-adv-x="921" d="M115 1231q0 146 105 248t247 102t241 -102t99 -250q0 -151 -102 -253t-246 -102q-142 0 -243 103t-101 254zM244 1229q0 -90 64.5 -154.5t152.5 -64.5q95 0 153 62.5t58 156.5q0 93 -61.5 157t-151.5 64q-87 0 -151 -65.5t-64 -155.5z" />
<glyph unicode="&#xb1;" horiz-adv-x="1265" d="M23 848v127h546v551h127v-551h545v-127h-545v-551h-127v551h-546zM25 0v127h1208v-127h-1208z" />
<glyph unicode="&#xb4;" horiz-adv-x="794" d="M70 1237l270 299h274l-479 -299h-65z" />
<glyph unicode="&#xb6;" horiz-adv-x="1265" d="M72 1120q0 190 127 303t356 113h590v-90h-133v-2089h-94v2089h-252v-2089h-97v1352h-49q-207 0 -327.5 114.5t-120.5 296.5z" />
<glyph unicode="&#xb7;" horiz-adv-x="509" d="M117 573q0 53 37 93.5t100 40.5q57 0 95 -38t38 -94q0 -61 -37.5 -99t-95.5 -38q-60 0 -98.5 39t-38.5 96z" />
<glyph unicode="&#xb8;" horiz-adv-x="475" d="M70 -434q11 6 41 20.5t48.5 24t45 27t42 33.5t27 39t11.5 48q0 75 -119 95v147h86v-88q71 -5 119.5 -43.5t48.5 -110.5q0 -167 -330 -241z" />
<glyph unicode="&#xba;" horiz-adv-x="759" d="M57 915q0 144 87 230t243 86q142 0 228.5 -86t86.5 -236q0 -146 -88 -229.5t-233 -83.5q-151 0 -237.5 84t-86.5 235zM203 909q0 -260 174 -260q180 0 180 262q0 131 -40.5 198t-139.5 67q-174 0 -174 -267z" />
<glyph unicode="&#xbb;" horiz-adv-x="1030" d="M113 905h92l319 -389l-319 -389h-90l196 389zM506 127l196 389l-196 389h90l319 -389l-319 -389h-90z" />
<glyph unicode="&#xbf;" horiz-adv-x="1136" d="M68 328q0 98 57 192.5t170 165.5l63 41q120 78 160.5 165t40.5 234v41h92v-80q0 -133 -37 -213.5t-149 -201.5l-70 -74q-50 -55 -78 -129.5t-28 -149.5q0 -123 78.5 -194.5t183.5 -71.5q133 0 205 101l100 274h105v-270q-60 -85 -173.5 -131.5t-246.5 -46.5 q-72 0 -140 13.5t-128.5 41.5t-106 68.5t-72 98t-26.5 126.5zM467 1427q0 60 36.5 98t96.5 38q59 0 97 -39t38 -97q0 -56 -37 -93.5t-98 -37.5q-57 0 -95 36t-38 95z" />
<glyph unicode="&#xc0;" horiz-adv-x="1873" d="M102 0v76l183 45l620 1431h105l589 -1431l173 -45v-76h-582v76l178 43l-162 397h-618l-154 -397l184 -43v-76h-516zM604 1939h275l270 -297h-64zM616 594h562l-287 719z" />
<glyph unicode="&#xc1;" horiz-adv-x="1873" d="M102 0v76l183 45l620 1431h105l589 -1431l173 -45v-76h-582v76l178 43l-162 397h-618l-154 -397l184 -43v-76h-516zM616 594h562l-287 719zM655 1640l271 299h274l-479 -299h-66z" />
<glyph unicode="&#xc2;" horiz-adv-x="1873" d="M102 0v76l183 45l620 1431h105l589 -1431l173 -45v-76h-582v76l178 43l-162 397h-618l-154 -397l184 -43v-76h-516zM580 1640l299 336h69l318 -336h-82l-271 154l-254 -154h-79zM616 594h562l-287 719z" />
<glyph unicode="&#xc3;" horiz-adv-x="1873" d="M102 0v76l183 45l620 1431h105l589 -1431l173 -45v-76h-582v76l178 43l-162 397h-618l-154 -397l184 -43v-76h-516zM551 1690l31 43q72 102 122 140t123 38q43 0 86.5 -20.5t74 -45t68.5 -45t70 -20.5q78 0 154 114l51 -36q-73 -121 -132.5 -169.5t-115.5 -48.5 q-36 0 -79 20.5t-76.5 45.5t-79.5 45.5t-88 20.5q-72 0 -164 -119zM616 594h562l-287 719z" />
<glyph unicode="&#xc4;" horiz-adv-x="1812" d="M102 0v76l183 45l620 1431h105l589 -1431l173 -45v-76h-582v76l178 43l-162 397h-618l-154 -397l184 -43v-76h-516zM561 1817q0 56 36 87t97 31t97 -31.5t36 -86.5q0 -53 -34.5 -86t-98.5 -33q-61 0 -97 31.5t-36 87.5zM616 594h562l-287 719zM1018 1817q0 56 36 87 t97 31t97 -31.5t36 -86.5q0 -53 -34.5 -86t-98.5 -33q-61 0 -97 31.5t-36 87.5z" />
<glyph unicode="&#xc5;" horiz-adv-x="1873" d="M102 0v76l183 45l620 1431h105l589 -1431l173 -45v-76h-582v76l178 43l-162 397h-618l-154 -397l184 -43v-76h-516zM616 594h562l-287 719zM715 1935q0 99 65 169.5t185 70.5q109 0 170 -69.5t61 -163.5q0 -97 -65 -168.5t-177 -71.5t-175.5 69.5t-63.5 163.5zM819 1937 q0 -73 36 -123.5t101 -50.5q66 0 104 51t38 123q0 71 -38.5 124t-103.5 53q-64 0 -100.5 -53t-36.5 -124z" />
<glyph unicode="&#xc6;" horiz-adv-x="2107" d="M102 0v76l183 45l620 1415h965v-367h-107l-80 279h-639l250 -612h338l56 178h75v-424h-75l-56 155h-291l267 -657h209l79 277h109v-365h-815v76l178 43l-162 397h-618l-154 -397l184 -43v-76h-516zM616 594h562l-287 719z" />
<glyph unicode="&#xc7;" horiz-adv-x="1552" d="M123 758q0 244 103 427t277.5 277t393.5 94q145 0 274 -42.5t218 -127.5v-331h-107l-100 325q-112 101 -297 101q-113 0 -207.5 -45.5t-166 -133.5t-111.5 -225.5t-40 -312.5q0 -336 141 -530.5t376 -194.5q190 0 313 115l102 340h97v-347q-181 -190 -502 -190 q-4 0 -12 1t-11 1v-47q71 -5 119.5 -43.5t48.5 -110.5q0 -167 -330 -241l-20 49q11 6 41 20.5t48.5 24t45 27t42 33.5t27 39t11.5 48q0 75 -119 95v112q-189 22 -336.5 123t-233 275t-85.5 395z" />
<glyph unicode="&#xc8;" horiz-adv-x="1433" d="M184 0v76l203 47v1288l-203 49v76h1129v-367h-107l-80 279h-524v-612h395l56 178h75v-424h-75l-56 155h-395v-657h561l80 277h109v-365h-1168zM584 1939h274l270 -297h-63z" />
<glyph unicode="&#xc9;" horiz-adv-x="1433" d="M184 0v76l203 47v1288l-203 49v76h1129v-367h-107l-80 279h-524v-612h395l56 178h75v-424h-75l-56 155h-395v-657h561l80 277h109v-365h-1168zM514 1640l270 299h275l-479 -299h-66z" />
<glyph unicode="&#xca;" horiz-adv-x="1433" d="M184 0v76l203 47v1288l-203 49v76h1129v-367h-107l-80 279h-524v-612h395l56 178h75v-424h-75l-56 155h-395v-657h561l80 277h109v-365h-1168zM537 1640l299 336h69l318 -336h-82l-271 154l-254 -154h-79z" />
<glyph unicode="&#xcb;" horiz-adv-x="1433" d="M184 0v76l203 47v1288l-203 49v76h1129v-367h-107l-80 279h-524v-612h395l56 178h75v-424h-75l-56 155h-395v-657h561l80 277h109v-365h-1168zM487 1831q0 56 36.5 87.5t97.5 31.5q60 0 96.5 -32t36.5 -87q0 -53 -34.5 -86t-98.5 -33q-61 0 -97.5 31.5t-36.5 87.5z M944 1831q0 56 36 87.5t97 31.5q60 0 96.5 -32t36.5 -87q0 -53 -34.5 -86t-98.5 -33q-61 0 -97 31.5t-36 87.5z" />
<glyph unicode="&#xcc;" horiz-adv-x="757" d="M63 0v76l203 47v1288l-203 49v76h623v-76l-205 -47v-1292l205 -45v-76h-623zM102 1939h275l270 -297h-63z" />
<glyph unicode="&#xcd;" horiz-adv-x="929" d="M123 0v76l203 47v1288l-203 49v76h622v-76l-204 -47v-1292l204 -45v-76h-622zM145 1640l271 299h274l-479 -299h-66z" />
<glyph unicode="&#xce;" horiz-adv-x="784" d="M49 1640l299 336h70l317 -336h-82l-270 154l-254 -154h-80zM80 0v76l203 47v1288l-203 49v76h622v-76l-204 -47v-1292l204 -45v-76h-622z" />
<glyph unicode="&#xcf;" horiz-adv-x="819" d="M68 1804q0 56 36 87.5t97 31.5q60 0 96.5 -32t36.5 -87q0 -53 -34.5 -85.5t-98.5 -32.5q-61 0 -97 31t-36 87zM123 0v76l203 47v1288l-203 49v76h622v-76l-204 -47v-1292l204 -45v-76h-622zM524 1804q0 56 36 87.5t97 31.5t97.5 -32t36.5 -87q0 -53 -35 -85.5t-99 -32.5 q-61 0 -97 31t-36 87z" />
<glyph unicode="&#xd0;" horiz-adv-x="1648" d="M41 737v94h205v580l-203 49v76h545q165 0 297.5 -23t247.5 -78.5t192 -143t120.5 -221.5t43.5 -310t-44.5 -308.5t-123 -218t-198 -138t-257.5 -74t-315 -21.5h-508v76l203 47v614h-205zM461 86h100q140 0 246 21t192 69t140 126t83 193.5t29 270.5q0 362 -158 523 t-497 161h-135v-619h409v-94h-409v-651z" />
<glyph unicode="&#xd1;" horiz-adv-x="1615" d="M217 0v76l191 45v1286l-191 53v76h457l835 -1212v1083l-200 53v76h503v-76l-200 -51v-1409h-144l-958 1405v-1284l201 -45v-76h-494zM502 1858l30 43q71 102 122 140t124 38q43 0 86.5 -20.5t74 -45t68.5 -45t70 -20.5q78 0 154 114l51 -37q-73 -121 -132.5 -169 t-115.5 -48q-36 0 -79 20.5t-76.5 45t-79.5 45t-88 20.5q-73 0 -164 -118z" />
<glyph unicode="&#xd2;" horiz-adv-x="1703" d="M123 764q0 186 55 339t152.5 255.5t231.5 158.5t290 56q214 0 379.5 -100.5t257.5 -284.5t92 -424q0 -363 -201 -583t-530 -220t-528 218t-199 585zM360 764q0 -346 121.5 -533.5t364.5 -187.5q238 0 370 184.5t132 544.5q0 354 -128 536.5t-366 182.5 q-243 0 -368.5 -186.5t-125.5 -540.5zM559 1939h275l270 -297h-64z" />
<glyph unicode="&#xd3;" horiz-adv-x="1703" d="M123 764q0 186 55 339t152.5 255.5t231.5 158.5t290 56q214 0 379.5 -100.5t257.5 -284.5t92 -424q0 -363 -201 -583t-530 -220t-528 218t-199 585zM360 764q0 -346 121.5 -533.5t364.5 -187.5q238 0 370 184.5t132 544.5q0 354 -128 536.5t-366 182.5 q-243 0 -368.5 -186.5t-125.5 -540.5zM584 1640l270 299h274l-479 -299h-65z" />
<glyph unicode="&#xd4;" horiz-adv-x="1703" d="M123 764q0 186 55 339t152.5 255.5t231.5 158.5t290 56q214 0 379.5 -100.5t257.5 -284.5t92 -424q0 -363 -201 -583t-530 -220t-528 218t-199 585zM360 764q0 -346 121.5 -533.5t364.5 -187.5q238 0 370 184.5t132 544.5q0 354 -128 536.5t-366 182.5 q-243 0 -368.5 -186.5t-125.5 -540.5zM504 1640l299 336h69l318 -336h-82l-270 154l-254 -154h-80z" />
<glyph unicode="&#xd5;" horiz-adv-x="1703" d="M123 764q0 186 55 339t152.5 255.5t231.5 158.5t290 56q214 0 379.5 -100.5t257.5 -284.5t92 -424q0 -363 -201 -583t-530 -220t-528 218t-199 585zM360 764q0 -346 121.5 -533.5t364.5 -187.5q238 0 370 184.5t132 544.5q0 354 -128 536.5t-366 182.5 q-243 0 -368.5 -186.5t-125.5 -540.5zM438 1690l31 43q71 102 122 140t124 38q43 0 86.5 -20.5t74 -45t68.5 -45t70 -20.5q77 0 153 114l52 -36q-73 -121 -132.5 -169.5t-115.5 -48.5q-36 0 -79 20.5t-77 45.5t-80 45.5t-88 20.5q-72 0 -164 -119z" />
<glyph unicode="&#xd6;" horiz-adv-x="1703" d="M123 764q0 186 55 339t152.5 255.5t231.5 158.5t290 56q214 0 379.5 -100.5t257.5 -284.5t92 -424q0 -363 -201 -583t-530 -220t-528 218t-199 585zM360 764q0 -346 121.5 -533.5t364.5 -187.5q238 0 370 184.5t132 544.5q0 354 -128 536.5t-366 182.5 q-243 0 -368.5 -186.5t-125.5 -540.5zM461 1784q0 56 36 87.5t97 31.5q60 0 96.5 -32t36.5 -87q0 -53 -34.5 -86t-98.5 -33q-61 0 -97 31.5t-36 87.5zM918 1784q0 56 36 87.5t97 31.5q60 0 96.5 -32t36.5 -87q0 -53 -34.5 -86t-98.5 -33q-61 0 -97 31.5t-36 87.5z" />
<glyph unicode="&#xd7;" horiz-adv-x="1251" d="M166 1133l96 98l363 -365l356 357l96 -99l-354 -354l362 -362l-96 -97l-362 361l-355 -355l-100 97l356 356z" />
<glyph unicode="&#xd8;" horiz-adv-x="1697" d="M119 764q0 186 55 339t152.5 255.5t231.5 158.5t290 56q148 0 270 -49l96 239h109l-113 -282q174 -98 270.5 -283t96.5 -434q0 -363 -201 -583t-530 -220q-125 0 -228 33l-112 -283h-111l127 318q-192 92 -297.5 281t-105.5 454zM356 764q0 -458 207 -629l518 1297 q-103 59 -231 59q-243 0 -368.5 -186.5t-125.5 -540.5zM653 80q81 -37 189 -37q238 0 369.5 184.5t131.5 544.5q0 415 -178 596z" />
<glyph unicode="&#xd9;" horiz-adv-x="1822" d="M123 1460v76h622v-76l-202 -47v-835q0 -266 104.5 -390.5t310.5 -124.5q437 0 437 537v811l-205 51v74h510v-74l-193 -51v-821q0 -621 -594 -621q-304 0 -444.5 162.5t-140.5 484.5v795zM680 1939h274l271 -297h-64z" />
<glyph unicode="&#xda;" horiz-adv-x="1822" d="M123 1460v76h622v-76l-202 -47v-835q0 -266 104.5 -390.5t310.5 -124.5q437 0 437 537v811l-205 51v74h510v-74l-193 -51v-821q0 -621 -594 -621q-304 0 -444.5 162.5t-140.5 484.5v795zM647 1640l271 299h274l-479 -299h-66z" />
<glyph unicode="&#xdb;" horiz-adv-x="1822" d="M123 1460v76h622v-76l-202 -47v-835q0 -266 104.5 -390.5t310.5 -124.5q437 0 437 537v811l-205 51v74h510v-74l-193 -51v-821q0 -621 -594 -621q-304 0 -444.5 162.5t-140.5 484.5v795zM633 1640l299 336h69l318 -336h-82l-270 154l-254 -154h-80z" />
<glyph unicode="&#xdc;" horiz-adv-x="1822" d="M123 1460v76h622v-76l-202 -47v-835q0 -266 104.5 -390.5t310.5 -124.5q437 0 437 537v811l-205 51v74h510v-74l-193 -51v-821q0 -621 -594 -621q-304 0 -444.5 162.5t-140.5 484.5v795zM578 1796q0 56 36 87.5t97 31.5q60 0 96.5 -32t36.5 -87q0 -53 -34.5 -86 t-98.5 -33q-61 0 -97 31.5t-36 87.5zM1034 1796q0 56 36 87.5t97 31.5q60 0 96.5 -32t36.5 -87q0 -53 -34.5 -86t-98.5 -33q-61 0 -97 31.5t-36 87.5z" />
<glyph unicode="&#xdd;" horiz-adv-x="1636" d="M61 1460v76h623v-76l-180 -43l389 -667l358 661l-178 51v74h502v-74l-182 -55l-455 -750v-534l211 -47v-76h-623v76l197 45v508l-465 780zM602 1640l270 299h275l-479 -299h-66z" />
<glyph unicode="&#xde;" horiz-adv-x="1288" d="M221 0v74l201 51v1284l-201 53v74h598v-53l-180 -74v-82h190q104 0 191.5 -14.5t167 -49.5t134.5 -89.5t87.5 -139.5t32.5 -194q0 -236 -166.5 -374t-454.5 -138h-182v-203l211 -51v-74h-629zM639 418h119q208 0 326 105.5t118 310.5q0 189 -98.5 296t-284.5 107h-180 v-819z" />
<glyph unicode="&#xdf;" horiz-adv-x="1331" d="M109 0v76l157 45v950q0 248 123.5 369t337.5 121q178 0 289.5 -85t111.5 -204q0 -143 -159 -250l-62 -41q-112 -80 -112 -147q0 -81 131 -152l168 -90q105 -49 157 -125.5t52 -163.5q0 -139 -111.5 -230t-267.5 -91q-85 0 -170.5 27t-139.5 81v275h84l84 -261 q63 -51 150 -51q83 0 146 45t63 113q0 65 -47 132.5t-131 113.5l-144 75q-87 45 -139.5 109t-52.5 129q0 55 40 108.5t113 98.5l56 35q67 40 102 101.5t35 129.5q0 100 -68 172t-186 72q-143 0 -202.5 -85t-59.5 -269v-1133h-348z" />
<glyph unicode="&#xe0;" d="M82 250q0 181 158 259.5t505 84.5v88q0 145 -59 197.5t-182 52.5q-50 0 -105 -15t-92 -38l-67 -203h-76v231q50 44 141.5 73.5t196.5 29.5q106 0 183 -18t135.5 -59.5t88 -116.5t29.5 -183v-510l172 -47v-76h-360v207q-94 -225 -338 -225q-163 0 -246.5 70.5t-83.5 197.5 zM252 1536h274l271 -297h-64zM279 270q0 -108 44 -155t142 -47q50 0 90 12.5t76.5 44.5t61 82.5t38.5 130t14 184.5q-142 0 -233.5 -14.5t-142.5 -47.5t-70.5 -77.5t-19.5 -112.5z" />
<glyph unicode="&#xe1;" d="M82 250q0 181 158 259.5t505 84.5v88q0 145 -59 197.5t-182 52.5q-50 0 -105 -15t-92 -38l-67 -203h-76v231q50 44 141.5 73.5t196.5 29.5q106 0 183 -18t135.5 -59.5t88 -116.5t29.5 -183v-510l172 -47v-76h-360v207q-94 -225 -338 -225q-163 0 -246.5 70.5t-83.5 197.5 zM240 1237l270 299h274l-479 -299h-65zM279 270q0 -108 44 -155t142 -47q50 0 90 12.5t76.5 44.5t61 82.5t38.5 130t14 184.5q-142 0 -233.5 -14.5t-142.5 -47.5t-70.5 -77.5t-19.5 -112.5z" />
<glyph unicode="&#xe2;" d="M82 250q0 181 158 259.5t505 84.5v88q0 145 -59 197.5t-182 52.5q-50 0 -105 -15t-92 -38l-67 -203h-76v231q50 44 141.5 73.5t196.5 29.5q106 0 183 -18t135.5 -59.5t88 -116.5t29.5 -183v-510l172 -47v-76h-360v207q-94 -225 -338 -225q-163 0 -246.5 70.5t-83.5 197.5 zM170 1200l299 336h70l317 -336h-82l-270 154l-254 -154h-80zM279 270q0 -108 44 -155t142 -47q50 0 90 12.5t76.5 44.5t61 82.5t38.5 130t14 184.5q-142 0 -233.5 -14.5t-142.5 -47.5t-70.5 -77.5t-19.5 -112.5z" />
<glyph unicode="&#xe3;" d="M82 250q0 181 158 259.5t505 84.5v88q0 145 -59 197.5t-182 52.5q-50 0 -105 -15t-92 -38l-67 -203h-76v231q50 44 141.5 73.5t196.5 29.5q106 0 183 -18t135.5 -59.5t88 -116.5t29.5 -183v-510l172 -47v-76h-360v207q-94 -225 -338 -225q-163 0 -246.5 70.5t-83.5 197.5 zM139 1315l31 43q71 102 122 140t124 38q43 0 86.5 -20.5t74 -45t68.5 -45t70 -20.5q76 0 153 115l52 -37q-73 -121 -132.5 -169t-115.5 -48q-36 0 -79 20.5t-77 45t-80 45t-88 20.5q-72 0 -164 -119zM279 270q0 -108 44 -155t142 -47q50 0 90 12.5t76.5 44.5t61 82.5 t38.5 130t14 184.5q-142 0 -233.5 -14.5t-142.5 -47.5t-70.5 -77.5t-19.5 -112.5z" />
<glyph unicode="&#xe4;" d="M82 250q0 181 158 259.5t505 84.5v88q0 145 -59 197.5t-182 52.5q-50 0 -105 -15t-92 -38l-67 -203h-76v231q50 44 141.5 73.5t196.5 29.5q106 0 183 -18t135.5 -59.5t88 -116.5t29.5 -183v-510l172 -47v-76h-360v207q-94 -225 -338 -225q-163 0 -246.5 70.5t-83.5 197.5 zM143 1430q0 56 36 87t97 31t97.5 -31.5t36.5 -86.5q0 -53 -35 -86t-99 -33q-61 0 -97 31.5t-36 87.5zM279 270q0 -108 44 -155t142 -47q50 0 90 12.5t76.5 44.5t61 82.5t38.5 130t14 184.5q-142 0 -233.5 -14.5t-142.5 -47.5t-70.5 -77.5t-19.5 -112.5zM600 1430 q0 56 36 87t97 31t97 -31.5t36 -86.5q0 -53 -34.5 -86t-98.5 -33q-61 0 -97 31.5t-36 87.5z" />
<glyph unicode="&#xe5;" horiz-adv-x="1089" d="M35 250q0 181 158 259.5t505 84.5v88q0 145 -59 197.5t-182 52.5q-50 0 -105 -15t-92 -38l-67 -203h-76v231q50 44 141.5 73.5t196.5 29.5q106 0 183 -18t135.5 -59.5t88 -116.5t29.5 -183v-510l172 -47v-76h-361v207q-94 -225 -337 -225q-163 0 -246.5 70.5t-83.5 197.5 zM215 1389q0 99 65 169t185 70q109 0 170 -69.5t61 -163.5q0 -98 -64.5 -169t-176.5 -71t-176 70t-64 164zM231 270q0 -108 44.5 -155t142.5 -47q50 0 90 12.5t76.5 44.5t61 82.5t38.5 130t14 184.5q-142 0 -233.5 -14.5t-143 -47.5t-71 -77.5t-19.5 -112.5zM319 1391 q0 -72 36 -123t102 -51t103.5 51t37.5 123q0 71 -38 123.5t-103 52.5q-64 0 -101 -52.5t-37 -123.5z" />
<glyph unicode="&#xe6;" horiz-adv-x="1789" d="M88 244q0 74 27.5 127t77.5 88t135.5 56.5t186.5 31t245 12.5v123q0 145 -59.5 197.5t-182.5 52.5q-47 0 -102 -17.5t-94 -42.5l-68 -202h-76v231q52 45 143 77t195 32q232 0 352 -166q65 73 162 121.5t201 48.5q79 0 144 -21.5t109.5 -56.5t78.5 -83t53.5 -96.5 t32 -101.5t16.5 -93t4 -77l-717 2q2 -222 69 -325t222 -103q63 0 121 17t85.5 33.5t27.5 21.5l75 217h76v-233q-55 -62 -155.5 -97.5t-229.5 -35.5q-284 0 -397 184q-31 -68 -99 -111t-141.5 -58t-159.5 -15q-167 0 -262.5 69t-95.5 193zM285 264q0 -196 215 -196 q65 0 108.5 15.5t80 59t54 128.5t17.5 216q-195 0 -295 -20t-140 -66.5t-40 -136.5zM952 551h531q0 167 -74.5 275t-181.5 108q-91 0 -150.5 -55.5t-87.5 -137.5q-31 -86 -37 -190z" />
<glyph unicode="&#xe7;" horiz-adv-x="1054" d="M96 489q0 163 69.5 283.5t186 181t264.5 60.5q94 0 182.5 -24t133.5 -64v-254h-76l-68 223q-57 43 -180 43q-143 0 -222 -114.5t-79 -334.5q0 -221 82.5 -326.5t233.5 -105.5q102 0 165 29l72 233h76v-241q-46 -44 -129.5 -68.5t-177.5 -29.5v-68q71 -5 119.5 -43.5 t48.5 -110.5q0 -167 -330 -241l-21 49q11 6 41 20.5t49 24t45 27t42 33.5t27.5 39t11.5 48q0 75 -119 95v131q-198 18 -322.5 150.5t-124.5 354.5z" />
<glyph unicode="&#xe8;" horiz-adv-x="1128" d="M104 487q0 248 132.5 386.5t355.5 138.5q78 0 142 -18.5t106 -47t73.5 -70.5t48 -82.5t27 -89t13 -84t2.5 -73.5h-695q0 -94 6.5 -163t25.5 -133.5t51 -105t85.5 -64.5t126.5 -24q63 0 121 17t85.5 33.5t27.5 21.5l75 217h76v-233q-55 -62 -155.5 -97.5t-229.5 -35.5 q-250 0 -375 135.5t-125 371.5zM291 1536h274l271 -297h-64zM313 614h512q0 164 -63 241t-174 77q-91 0 -150.5 -45.5t-87.5 -114.5q-31 -73 -37 -158z" />
<glyph unicode="&#xe9;" horiz-adv-x="1128" d="M104 487q0 248 132.5 386.5t355.5 138.5q78 0 142 -18.5t106 -47t73.5 -70.5t48 -82.5t27 -89t13 -84t2.5 -73.5h-695q0 -94 6.5 -163t25.5 -133.5t51 -105t85.5 -64.5t126.5 -24q63 0 121 17t85.5 33.5t27.5 21.5l75 217h76v-233q-55 -62 -155.5 -97.5t-229.5 -35.5 q-250 0 -375 135.5t-125 371.5zM303 1237l270 299h275l-479 -299h-66zM313 614h512q0 164 -63 241t-174 77q-91 0 -150.5 -45.5t-87.5 -114.5q-31 -73 -37 -158z" />
<glyph unicode="&#xea;" horiz-adv-x="1128" d="M104 487q0 248 132.5 386.5t355.5 138.5q78 0 142 -18.5t106 -47t73.5 -70.5t48 -82.5t27 -89t13 -84t2.5 -73.5h-695q0 -94 6.5 -163t25.5 -133.5t51 -105t85.5 -64.5t126.5 -24q63 0 121 17t85.5 33.5t27.5 21.5l75 217h76v-233q-55 -62 -155.5 -97.5t-229.5 -35.5 q-250 0 -375 135.5t-125 371.5zM236 1200l299 336h69l318 -336h-82l-271 154l-254 -154h-79zM313 614h512q0 164 -63 241t-174 77q-91 0 -150.5 -45.5t-87.5 -114.5q-31 -73 -37 -158z" />
<glyph unicode="&#xeb;" horiz-adv-x="1128" d="M104 487q0 248 132.5 386.5t355.5 138.5q78 0 142 -18.5t106 -47t73.5 -70.5t48 -82.5t27 -89t13 -84t2.5 -73.5h-695q0 -94 6.5 -163t25.5 -133.5t51 -105t85.5 -64.5t126.5 -24q63 0 121 17t85.5 33.5t27.5 21.5l75 217h76v-233q-55 -62 -155.5 -97.5t-229.5 -35.5 q-250 0 -375 135.5t-125 371.5zM240 1430q0 56 36 87t97 31t97 -31.5t36 -86.5q0 -53 -34.5 -86t-98.5 -33q-61 0 -97 31.5t-36 87.5zM313 614h512q0 164 -63 241t-174 77q-91 0 -150.5 -45.5t-87.5 -114.5q-31 -73 -37 -158zM696 1430q0 56 36 87t97 31t97.5 -31.5 t36.5 -86.5q0 -53 -35 -86t-99 -33q-61 0 -97 31.5t-36 87.5z" />
<glyph unicode="&#xec;" horiz-adv-x="659" d="M57 1536h275l270 -297h-63zM92 0v76l150 45v774l-140 25v73h332v-876l144 -41v-76h-486z" />
<glyph unicode="&#xed;" horiz-adv-x="659" d="M57 1237l271 299h274l-479 -299h-66zM92 0v76l150 45v774l-140 25v73h332v-876l144 -41v-76h-486z" />
<glyph unicode="&#xee;" horiz-adv-x="659" d="M-12 1200l299 336h69l318 -336h-82l-270 154l-254 -154h-80zM92 0v76l150 45v774l-140 25v73h332v-876l144 -41v-76h-486z" />
<glyph unicode="&#xef;" horiz-adv-x="659" d="M-31 1346q0 52 33.5 84t89.5 32q50 0 81.5 -32.5t31.5 -86.5q0 -50 -32 -82t-87 -32q-50 0 -83.5 30t-33.5 87zM92 0v76l150 45v774l-140 25v73h332v-876l144 -41v-76h-486zM424 1346q0 52 33.5 84t89.5 32q48 0 80 -33t32 -86q0 -49 -33 -81.5t-87 -32.5q-50 0 -82.5 30 t-32.5 87z" />
<glyph unicode="&#xf0;" d="M96 508q0 241 135.5 371.5t350.5 130.5q156 0 303 -92v20q0 61 -23 111t-70.5 92.5t-104 75.5t-138.5 71l-270 -194l-68 67l240 172l-301 144l51 77l342 -155l243 176l68 -68l-215 -153q84 -42 149 -87.5t127 -110.5t102.5 -142t64.5 -182t24 -230q0 -100 -15.5 -187.5 t-53.5 -168t-95 -138.5t-145.5 -92t-200.5 -34q-234 0 -367 141.5t-133 384.5zM301 506q0 -226 74 -333t223 -107q147 0 218 105t71 331q0 224 -71.5 323t-217.5 99q-161 0 -229 -100t-68 -318z" />
<glyph unicode="&#xf1;" horiz-adv-x="1409" d="M137 0v76l152 43v774l-152 29v73h332v-288q82 303 365 303q165 0 245 -102t80 -279v-508l158 -45v-76h-486v76l138 41v487q0 165 -44 237t-139 72q-145 0 -224 -138.5t-79 -414.5v-243l144 -41v-76h-490zM313 1315l31 43q71 102 122 140t124 38q43 0 86.5 -20.5t74 -45 t68.5 -45t70 -20.5q76 0 153 115l52 -37q-73 -121 -132.5 -169t-115.5 -48q-36 0 -79 20.5t-77 45t-80 45t-88 20.5q-72 0 -164 -119z" />
<glyph unicode="&#xf2;" d="M96 489q0 242 137 382.5t365 140.5q226 0 361 -137t135 -383q0 -245 -135.5 -377.5t-362.5 -132.5q-230 0 -365 133t-135 374zM303 489q0 -225 72 -324t219 -99q151 0 223 101t72 329q0 215 -68 322.5t-223 107.5q-150 0 -222.5 -104t-72.5 -333zM340 1536h274l271 -297 h-64z" />
<glyph unicode="&#xf3;" d="M96 489q0 242 137 382.5t365 140.5q226 0 361 -137t135 -383q0 -245 -135.5 -377.5t-362.5 -132.5q-230 0 -365 133t-135 374zM303 489q0 -225 72 -324t219 -99q151 0 223 101t72 329q0 215 -68 322.5t-223 107.5q-150 0 -222.5 -104t-72.5 -333zM324 1237l270 299h274 l-479 -299h-65z" />
<glyph unicode="&#xf4;" d="M96 489q0 242 137 382.5t365 140.5q226 0 361 -137t135 -383q0 -245 -135.5 -377.5t-362.5 -132.5q-230 0 -365 133t-135 374zM252 1200l299 336h70l317 -336h-82l-270 154l-254 -154h-80zM303 489q0 -225 72 -324t219 -99q151 0 223 101t72 329q0 215 -68 322.5 t-223 107.5q-150 0 -222.5 -104t-72.5 -333z" />
<glyph unicode="&#xf5;" d="M96 489q0 242 137 382.5t365 140.5q226 0 361 -137t135 -383q0 -245 -135.5 -377.5t-362.5 -132.5q-230 0 -365 133t-135 374zM219 1315l31 43q71 102 122 140t124 38q43 0 86.5 -20.5t74 -45t68.5 -45t70 -20.5q76 0 153 115l51 -37q-73 -121 -132 -169t-115 -48 q-36 0 -79 20.5t-77 45t-80 45t-88 20.5q-72 0 -164 -119zM303 489q0 -225 72 -324t219 -99q151 0 223 101t72 329q0 215 -68 322.5t-223 107.5q-150 0 -222.5 -104t-72.5 -333z" />
<glyph unicode="&#xf6;" d="M96 489q0 242 137 382.5t365 140.5q226 0 361 -137t135 -383q0 -245 -135.5 -377.5t-362.5 -132.5q-230 0 -365 133t-135 374zM231 1430q0 56 36.5 87t97.5 31t97 -31.5t36 -86.5q0 -53 -34.5 -86t-98.5 -33q-61 0 -97.5 31.5t-36.5 87.5zM303 489q0 -225 72 -324 t219 -99q151 0 223 101t72 329q0 215 -68 322.5t-223 107.5q-150 0 -222.5 -104t-72.5 -333zM688 1430q0 56 36 87t97 31t97 -31.5t36 -86.5q0 -53 -34.5 -86t-98.5 -33q-61 0 -97 31.5t-36 87.5z" />
<glyph unicode="&#xf7;" horiz-adv-x="1265" d="M23 551v127h1212v-127h-1212zM485 147q0 56 41 99t105 43q55 0 97 -42t42 -102t-43.5 -101.5t-99.5 -41.5q-58 0 -100 40.5t-42 104.5zM485 1067q0 58 42 98.5t104 40.5q55 0 97 -40t42 -99q0 -60 -41 -101.5t-102 -41.5q-58 0 -100 40.5t-42 102.5z" />
<glyph unicode="&#xf8;" d="M96 489q0 242 137 382.5t365 140.5q74 0 145 -19l64 162h108l-77 -194q122 -62 189 -181t67 -288q0 -245 -135.5 -377.5t-362.5 -132.5q-64 0 -139 14l-72 -182h-111l84 215q-125 57 -193.5 173.5t-68.5 286.5zM303 489q0 -260 96 -356l310 774q-52 19 -111 19 q-150 0 -222.5 -104t-72.5 -333zM489 80q41 -14 105 -14q151 0 223 101t72 329q0 251 -94 354z" />
<glyph unicode="&#xf9;" horiz-adv-x="1300" d="M86 918v75h340v-612q0 -162 42.5 -229.5t137.5 -67.5q144 0 225.5 135.5t81.5 413.5v258l-149 27v75h340v-870l162 -47v-76h-340v276q-52 -145 -148 -222t-209 -77q-336 0 -336 369v545zM377 1536h274l271 -297h-64z" />
<glyph unicode="&#xfa;" horiz-adv-x="1300" d="M86 918v75h340v-612q0 -162 42.5 -229.5t137.5 -67.5q144 0 225.5 135.5t81.5 413.5v258l-149 27v75h340v-870l162 -47v-76h-340v276q-52 -145 -148 -222t-209 -77q-336 0 -336 369v545zM377 1237l270 299h275l-480 -299h-65z" />
<glyph unicode="&#xfb;" horiz-adv-x="1300" d="M86 918v75h340v-612q0 -162 42.5 -229.5t137.5 -67.5q144 0 225.5 135.5t81.5 413.5v258l-149 27v75h340v-870l162 -47v-76h-340v276q-52 -145 -148 -222t-209 -77q-336 0 -336 369v545zM307 1200l299 336h70l317 -336h-82l-270 154l-254 -154h-80z" />
<glyph unicode="&#xfc;" horiz-adv-x="1300" d="M86 918v75h340v-612q0 -162 42.5 -229.5t137.5 -67.5q144 0 225.5 135.5t81.5 413.5v258l-149 27v75h340v-870l162 -47v-76h-340v276q-52 -145 -148 -222t-209 -77q-336 0 -336 369v545zM287 1430q0 56 36 87t97 31t97 -31.5t36 -86.5q0 -53 -34.5 -86t-98.5 -33 q-61 0 -97 31.5t-36 87.5zM743 1430q0 56 36.5 87t97.5 31t97 -31.5t36 -86.5q0 -53 -34.5 -86t-98.5 -33q-61 0 -97.5 31.5t-36.5 87.5z" />
<glyph unicode="&#xfd;" horiz-adv-x="978" d="M-106 918v75h520v-75l-140 -29l281 -664l248 666l-158 27v77h430v-77l-162 -25l-426 -1049q-28 -65 -44 -100t-37.5 -77.5t-38 -63t-39 -43t-47.5 -31.5t-56 -15t-71 -6h-91v299h76l51 -184q26 2 48.5 11t39.5 20t35 35t29 41.5t28 55t26 60.5t28.5 72.5t30.5 77.5 l-392 885zM225 1237l271 299h274l-479 -299h-66z" />
<glyph unicode="&#xfe;" horiz-adv-x="1224" d="M170 -569l154 45v1962l-150 26v72h332v-795q50 142 136.5 205.5t213.5 63.5q194 0 312 -135.5t118 -380.5t-118 -381t-310 -136q-248 0 -340 244v-745l150 -45v-76h-498v76zM520 500q0 -189 84 -310.5t223 -121.5q250 0 250 426q0 218 -62.5 322t-187.5 104 q-133 0 -220 -113t-87 -307z" />
<glyph unicode="&#xff;" horiz-adv-x="1243" d="M20 918v75h521v-75l-140 -29l281 -664l248 666l-158 27v77h430v-77l-162 -25l-426 -1049q-28 -65 -44 -100t-37.5 -77.5t-38 -63t-39 -43t-47.5 -31.5t-56 -15t-71 -6h-91v299h76l51 -184q26 2 48.5 11t39.5 20t35 35t29 41.5t28 55t26 60.5t28.5 72.5t30.5 77.5 l-392 885zM258 1430q0 56 36 87t97 31t97 -31.5t36 -86.5q0 -53 -34.5 -86t-98.5 -33q-61 0 -97 31.5t-36 87.5zM715 1430q0 56 36 87t97 31t97 -31.5t36 -86.5q0 -53 -34.5 -86t-98.5 -33q-61 0 -97 31.5t-36 87.5z" />
<glyph unicode="&#x152;" horiz-adv-x="2347" d="M145 764q0 186 55 334t153 243t230.5 145t290.5 50h1352v-367h-106l-80 279h-524v-612h395l55 178h76v-424h-76l-55 155h-395v-657h561l80 277h108v-365h-1393q-164 0 -298 50.5t-229 146.5t-147.5 240.5t-52.5 326.5zM383 764q0 -341 119.5 -511.5t365.5 -170.5 q239 0 359.5 166t120.5 524v35q-7 335 -123.5 491t-347.5 156q-494 0 -494 -690z" />
<glyph unicode="&#x153;" horiz-adv-x="1828" d="M117 489q0 244 132 383.5t359 139.5q119 0 205 -47.5t156 -139.5q48 63 91.5 101t108 62t146.5 24q79 0 143.5 -18.5t107.5 -47.5t75.5 -70.5t50 -82t28.5 -89t14 -84t3 -73.5h-684q0 -69 2 -118.5t8.5 -104.5t18.5 -92t32.5 -72.5t49 -56.5t69.5 -33.5t94 -12.5 q63 0 123.5 17t90.5 33.5t30 21.5l76 217h75v-233q-54 -62 -159.5 -97.5t-235.5 -35.5q-132 0 -213 44t-147 132q-70 -86 -156 -130t-205 -44q-229 0 -359 132t-130 375zM324 489q0 -227 66.5 -325t213.5 -98q144 0 212.5 95t72.5 312v39q-5 209 -68 311.5t-213 102.5 q-148 0 -216 -103t-68 -334zM1057 614h502q0 162 -67.5 240t-180.5 78q-82 0 -141.5 -46.5t-86 -117t-26.5 -154.5z" />
<glyph unicode="&#x178;" horiz-adv-x="1636" d="M61 1460v76h623v-76l-180 -43l389 -667l358 661l-178 51v74h502v-74l-182 -55l-455 -750v-534l211 -47v-76h-623v76l197 45v508l-465 780zM518 1786q0 56 36 87.5t97 31.5q60 0 96.5 -32t36.5 -87q0 -53 -34.5 -86t-98.5 -33q-61 0 -97 31.5t-36 87.5zM975 1786 q0 56 36 87.5t97 31.5q60 0 96.5 -32t36.5 -87q0 -53 -34.5 -86t-98.5 -33q-61 0 -97 31.5t-36 87.5z" />
<glyph unicode="&#x2c6;" horiz-adv-x="1150" d="M233 1200l299 336h70l318 -336h-82l-271 154l-254 -154h-80z" />
<glyph unicode="&#x2dc;" horiz-adv-x="1150" d="M178 1315l31 43q71 102 122 140t124 38q43 0 86.5 -20.5t74 -45t68.5 -45t70 -20.5q76 0 153 115l51 -37q-73 -121 -132 -169t-115 -48q-36 0 -79 20.5t-77 45t-80 45t-88 20.5q-72 0 -164 -119z" />
<glyph unicode="&#x2000;" horiz-adv-x="1087" />
<glyph unicode="&#x2001;" horiz-adv-x="2175" />
<glyph unicode="&#x2002;" horiz-adv-x="1087" />
<glyph unicode="&#x2003;" horiz-adv-x="2175" />
<glyph unicode="&#x2004;" horiz-adv-x="725" />
<glyph unicode="&#x2005;" horiz-adv-x="543" />
<glyph unicode="&#x2006;" horiz-adv-x="362" />
<glyph unicode="&#x2007;" horiz-adv-x="362" />
<glyph unicode="&#x2008;" horiz-adv-x="271" />
<glyph unicode="&#x2009;" horiz-adv-x="435" />
<glyph unicode="&#x200a;" horiz-adv-x="120" />
<glyph unicode="&#x2010;" horiz-adv-x="745" d="M113 467v139h518v-139h-518z" />
<glyph unicode="&#x2011;" horiz-adv-x="745" d="M113 467v139h518v-139h-518z" />
<glyph unicode="&#x2012;" horiz-adv-x="745" d="M113 467v139h518v-139h-518z" />
<glyph unicode="&#x2013;" horiz-adv-x="1363" d="M113 467v139h1136v-139h-1136z" />
<glyph unicode="&#x2014;" horiz-adv-x="1757" d="M113 467v139h1532v-139h-1532z" />
<glyph unicode="&#x2018;" horiz-adv-x="585" d="M96 1112l162 516h98v-516h-260z" />
<glyph unicode="&#x2019;" horiz-adv-x="585" d="M113 1112v516h260l-164 -516h-96z" />
<glyph unicode="&#x201a;" horiz-adv-x="552" d="M80 -287l117 516h260l-283 -516h-94z" />
<glyph unicode="&#x201c;" horiz-adv-x="976" d="M96 1114l166 516h94v-516h-260zM485 1114l172 516h93v-516h-265z" />
<glyph unicode="&#x201d;" horiz-adv-x="976" d="M113 1114v514h274l-180 -514h-94zM506 1114v514h260l-168 -514h-92z" />
<glyph unicode="&#x201e;" horiz-adv-x="944" d="M80 -287l117 516h272l-295 -516h-94zM469 -287l117 516h262l-281 -516h-98z" />
<glyph unicode="&#x2022;" horiz-adv-x="1536" d="M451 778q0 135 94 229.5t229 94.5q128 0 222 -96t94 -226t-94.5 -224.5t-225.5 -94.5q-130 0 -224.5 94t-94.5 223z" />
<glyph unicode="&#x2026;" horiz-adv-x="1529" d="M117 113q0 55 37.5 93t99.5 38q57 0 95 -36t38 -95q0 -60 -36.5 -98t-96.5 -38q-59 0 -98 39t-39 97zM627 113q0 54 37 92.5t100 38.5q57 0 95 -36t38 -95q0 -60 -37.5 -98t-97.5 -38q-59 0 -97 39t-38 97zM1139 113q0 56 35.5 93.5t99.5 37.5q57 0 94 -36t37 -95 q0 -60 -36.5 -98t-96.5 -38t-96.5 38t-36.5 98z" />
<glyph unicode="&#x202f;" horiz-adv-x="435" />
<glyph unicode="&#x2039;" horiz-adv-x="638" d="M113 516l319 389h90l-194 -389l196 -389h-92z" />
<glyph unicode="&#x203a;" horiz-adv-x="638" d="M113 905h92l319 -389l-319 -389h-90l196 389z" />
<glyph unicode="&#x205f;" horiz-adv-x="543" />
<glyph unicode="&#x20ac;" horiz-adv-x="1542" d="M51 563v131h105q-2 23 -2 64q0 52 6 104h-109v131h129q43 174 152.5 302.5t263 194.5t332.5 66q314 0 485 -163v-332h-106l-101 325q-106 95 -291 95q-190 0 -323.5 -124.5t-179.5 -363.5h612v-131h-629q-4 -66 -4 -98v-70h633v-131h-618q41 -248 172.5 -386t328.5 -138 q191 0 314 115l102 340h96v-347q-181 -190 -501 -190q-186 0 -340.5 71t-261.5 209t-144 326h-121z" />
<glyph unicode="&#x2122;" horiz-adv-x="2265" d="M14 1300v236h822v-236h-80l-43 154h-199v-627l133 -34v-80h-444v80l133 36v625h-201l-39 -154h-82zM1010 1456v80h346l243 -602l248 602h338v-80l-127 -33v-592l131 -38v-80h-442v80l133 38v564l-272 -682h-111l-274 678v-564l123 -34v-80h-332v80l129 36v586z" />
<glyph unicode="&#x25fc;" horiz-adv-x="993" d="M0 0v993h993v-993h-993z" />
</font>
</defs>
</svg>
